<?xml version="1.0" encoding="UTF-8" ?>
<!DOCTYPE svg PUBLIC "-//W3C//DTD SVG 1.1//EN" "http://www.w3.org/Graphics/SVG/1.1/DTD/svg11.dtd">
<svg width="252pt" height="423pt" viewBox="0 0 252 423" version="1.1" xmlns="http://www.w3.org/2000/svg">
<g id="#201f1eff">
</g>
<g id="#b94909ff">
<path fill="#b94909" opacity="1.00" d=" M 64.35 6.17 C 67.48 5.28 70.79 5.71 74.00 5.64 C 105.00 5.68 136.00 5.65 167.00 5.66 C 172.29 5.70 177.59 5.42 182.86 5.91 C 183.45 6.75 184.02 7.59 184.58 8.45 C 201.19 37.17 217.74 65.94 234.34 94.67 C 236.80 99.15 239.61 103.42 241.85 108.02 C 241.17 109.59 240.46 111.15 239.64 112.65 C 223.15 141.15 206.71 169.68 190.24 198.20 C 188.39 201.35 186.45 204.47 184.90 207.79 C 186.95 209.14 189.24 210.38 190.43 212.64 C 208.35 243.69 226.25 274.77 244.21 305.80 C 246.06 309.11 249.42 313.09 246.91 316.95 C 229.38 347.41 211.75 377.82 194.23 408.28 C 192.51 411.20 191.02 414.28 188.97 416.99 C 187.45 419.26 184.40 418.87 182.04 419.04 C 145.00 418.96 107.96 419.05 70.92 419.00 C 68.22 419.28 65.72 417.99 64.53 415.53 C 46.93 385.10 29.39 354.64 11.81 324.19 C 10.23 321.41 8.38 318.75 7.17 315.76 C 6.04 313.32 7.59 310.81 8.68 308.66 C 26.70 277.63 44.54 246.50 62.55 215.46 C 63.35 214.04 64.07 212.58 64.76 211.10 C 62.55 207.65 60.41 204.15 58.41 200.57 C 42.09 172.24 25.72 143.95 9.37 115.64 C 8.04 113.19 6.17 110.87 5.73 108.05 C 6.42 105.05 8.45 102.59 9.90 99.93 C 26.47 71.17 43.13 42.46 59.67 13.68 C 61.17 11.14 62.44 8.43 64.35 6.17 M 67.19 10.92 C 48.48 43.30 29.73 75.66 11.13 108.10 C 11.84 109.62 12.59 111.12 13.42 112.58 C 31.52 143.51 49.16 174.71 67.31 205.61 C 104.80 205.81 142.29 205.63 179.78 205.70 C 181.79 202.97 183.39 199.97 185.03 197.01 C 201.52 168.50 217.95 139.96 234.45 111.45 C 235.04 110.36 235.58 109.23 236.12 108.11 C 228.97 95.25 221.38 82.63 214.13 69.82 C 202.64 50.21 191.61 30.32 179.88 10.87 C 174.92 10.45 169.96 10.70 165.00 10.67 C 136.00 10.65 107.00 10.68 78.00 10.66 C 74.39 10.59 70.78 10.57 67.19 10.92 M 71.42 220.43 C 55.90 247.55 40.19 274.56 24.60 301.63 C 22.36 305.73 19.65 309.59 17.82 313.91 C 35.83 345.56 54.17 377.04 72.37 408.60 C 108.24 408.79 144.12 408.59 179.99 408.70 C 181.64 409.00 182.77 407.78 183.47 406.47 C 200.74 376.39 218.12 346.39 235.46 316.36 C 236.23 315.03 237.02 313.45 235.94 312.05 C 219.52 283.49 203.00 254.99 186.57 226.43 C 185.05 223.91 183.91 221.08 181.83 218.96 C 177.91 218.39 173.94 218.72 170.00 218.67 C 138.66 218.66 107.31 218.71 75.96 218.64 C 74.31 218.74 72.10 218.51 71.42 220.43 Z" />
<path fill="#b94909" opacity="1.00" d=" M 29.83 319.97 C 30.36 320.26 31.43 320.82 31.96 321.10 C 47.79 347.45 62.51 374.46 78.21 400.90 C 111.49 401.44 144.79 400.84 178.07 401.19 C 178.60 403.89 175.71 403.16 174.00 403.36 C 145.67 403.33 117.33 403.35 89.00 403.34 C 85.07 403.28 81.10 403.68 77.20 403.02 C 75.78 401.98 75.08 400.29 74.18 398.84 C 69.85 390.91 65.21 383.18 60.60 375.42 C 51.94 359.83 43.03 344.39 33.92 329.07 C 32.25 326.19 30.22 323.37 29.83 319.97 Z" />
</g>
</svg>
