<svg width="1294" height="520" viewBox="0 0 1294 520" fill="none" xmlns="http://www.w3.org/2000/svg">
    <g id="skeleton">
        <path
            d="M1110.4 106.962C1113.53 106.072 1116.84 106.502 1120.05 106.432C1151.05 106.472 1182.05 106.442 1213.05 106.452C1218.34 106.492 1223.64 106.212 1228.91 106.702C1229.5 107.542 1230.07 108.382 1230.63 109.242C1247.24 137.962 1263.79 166.732 1280.39 195.462C1282.85 199.942 1285.66 204.212 1287.9 208.812C1287.22 210.382 1286.51 211.942 1285.69 213.442C1269.2 241.942 1252.76 270.472 1236.29 298.992C1234.44 302.142 1232.5 305.262 1230.95 308.582C1233 309.932 1235.29 311.172 1236.48 313.432C1254.4 344.482 1272.3 375.562 1290.26 406.592C1292.11 409.902 1295.47 413.882 1292.96 417.742C1275.43 448.202 1257.8 478.612 1240.28 509.072C1238.56 511.992 1237.07 515.072 1235.02 517.782C1233.5 520.052 1230.45 519.662 1228.09 519.832C1191.05 519.752 1154.01 519.842 1116.97 519.792C1114.27 520.072 1111.77 518.782 1110.58 516.322C1092.98 485.892 1075.44 455.432 1057.86 424.982C1056.28 422.202 1054.43 419.542 1053.22 416.552C1052.09 414.112 1053.64 411.602 1054.73 409.452C1072.75 378.422 1090.59 347.292 1108.6 316.252C1109.4 314.832 1110.12 313.372 1110.81 311.892C1108.6 308.442 1106.46 304.942 1104.46 301.362C1088.14 273.032 1071.77 244.742 1055.42 216.432C1054.09 213.982 1052.22 211.662 1051.78 208.842C1052.47 205.842 1054.5 203.382 1055.95 200.722C1072.52 171.962 1089.18 143.252 1105.72 114.472C1107.22 111.932 1108.49 109.222 1110.4 106.962ZM1113.24 111.712C1094.53 144.092 1075.78 176.452 1057.18 208.892C1057.89 210.412 1058.64 211.912 1059.47 213.372C1077.57 244.302 1095.21 275.502 1113.36 306.402C1150.85 306.602 1188.34 306.422 1225.83 306.492C1227.84 303.762 1229.44 300.762 1231.08 297.802C1247.57 269.292 1264 240.752 1280.5 212.242C1281.09 211.152 1281.63 210.022 1282.17 208.902C1275.02 196.042 1267.43 183.422 1260.18 170.612C1248.69 151.002 1237.66 131.112 1225.93 111.662C1220.97 111.242 1216.01 111.492 1211.05 111.462C1182.05 111.442 1153.05 111.472 1124.05 111.452C1120.44 111.382 1116.83 111.362 1113.24 111.712ZM1117.47 321.222C1101.95 348.342 1086.24 375.352 1070.65 402.422C1068.41 406.522 1065.7 410.382 1063.87 414.702C1081.88 446.352 1100.22 477.832 1118.42 509.392C1154.29 509.582 1190.17 509.382 1226.04 509.492C1227.69 509.792 1228.82 508.572 1229.52 507.262C1246.79 477.182 1264.17 447.182 1281.51 417.152C1282.28 415.822 1283.07 414.242 1281.99 412.842C1265.57 384.282 1249.05 355.782 1232.62 327.222C1231.1 324.702 1229.96 321.872 1227.88 319.752C1223.96 319.182 1219.99 319.512 1216.05 319.462C1184.71 319.452 1153.36 319.502 1122.01 319.432C1120.36 319.532 1118.15 319.302 1117.47 321.222Z"
            fill="#B94909" />
        <path
            d="M1075.88 420.762C1076.41 421.052 1077.48 421.612 1078.01 421.892C1093.84 448.242 1108.56 475.252 1124.26 501.692C1157.54 502.232 1190.84 501.632 1224.12 501.982C1224.65 504.682 1221.76 503.952 1220.05 504.152C1191.72 504.122 1163.38 504.142 1135.05 504.132C1131.12 504.072 1127.15 504.472 1123.25 503.812C1121.83 502.772 1121.13 501.082 1120.23 499.632C1115.9 491.702 1111.26 483.972 1106.65 476.212C1097.99 460.622 1089.08 445.182 1079.97 429.862C1078.3 426.982 1076.27 424.162 1075.88 420.762Z"
            fill="#B94909" />
        <path
            d="M583.54 0.53164C588.65 -0.40836 593.88 0.22164 599.05 0.13164C628.71 0.13164 658.38 0.17164 688.05 0.11164C692.77 0.21164 697.63 -0.49836 702.25 0.75164C705.75 2.92164 707.22 7.12164 709.33 10.4916C725.43 38.6716 741.79 66.7216 757.94 94.8816C759.95 98.2216 761.33 102.122 764.32 104.762C765.83 105.172 767.42 105.222 768.99 105.282C801.37 105.142 833.75 105.142 866.12 105.282C868.04 105.042 870.6 105.532 871.84 103.632C874.41 100.372 876.11 96.5416 878.21 92.9816C893.32 66.7616 908.49 40.5716 923.59 14.3416C925.82 10.5816 927.63 6.54164 930.37 3.10164C931.84 0.981641 934.67 1.16164 936.96 1.00164C974.02 1.15164 1011.08 1.05164 1048.13 1.04164C1051.35 0.70164 1054.04 2.61164 1055.42 5.42164C1071.93 34.2216 1088.58 62.9416 1105.15 91.7116C1107.53 96.0016 1110.52 100.002 1112.19 104.642C1113.09 107.242 1111.43 109.762 1110.32 112.002C1092.18 142.982 1074.48 174.222 1056.35 205.202C1055.57 206.752 1054.41 208.652 1055.55 210.342C1074.44 242.522 1092.84 275.022 1111.72 307.212C1112.7 309.182 1114.15 311.512 1112.95 313.722C1111 318.222 1108.1 322.212 1105.73 326.482C1089.7 354.412 1073.43 382.222 1057.49 410.202C1056.2 412.632 1054.15 414.902 1051.13 414.462C1020.1 414.402 989.07 414.472 958.05 414.412C953.22 414.522 948.24 413.772 943.53 415.082C940.62 418.082 939.03 422.052 936.91 425.612C920.13 454.822 903.17 483.932 886.47 513.192C885.05 515.282 883.67 518.042 880.89 518.432C875.64 519.212 870.32 518.672 865.05 518.742C832.69 518.752 800.33 518.682 767.97 518.802C765.6 518.612 762.74 518.782 761.05 516.802C757.86 513.092 755.94 508.522 753.44 504.362C738.3 478.182 723.22 451.962 708.07 425.782C705.79 421.992 704.12 417.792 701.31 414.352C699.39 413.402 697.17 413.512 695.1 413.402C662.72 413.612 630.34 413.452 597.96 413.472C592.87 412.782 591.15 418.302 589.02 421.772C572.99 449.992 556.56 477.992 540.45 506.162C538.5 509.492 536.87 513.092 534.29 516.002C532.78 517.772 530.25 517.672 528.14 517.852C491.76 517.822 455.37 517.742 418.99 517.892C416.33 517.682 412.98 518.062 411.18 515.642C408.89 512.812 407.34 509.492 405.53 506.352C388.65 476.912 371.53 447.602 354.74 418.122C353.75 416.732 352.9 414.762 350.92 414.732C345.66 414.002 340.33 414.552 335.05 414.482C308.71 414.452 282.38 414.522 256.05 414.442C251.54 414.512 246.91 413.892 242.51 415.092C241.4 416.072 240.6 417.322 239.82 418.562C223.17 447.842 206.15 476.912 189.4 506.142C187.32 509.702 185.6 513.512 182.95 516.702C181.08 519.042 177.77 518.672 175.11 518.882C138.73 518.722 102.33 518.822 65.95 518.832C62.75 519.062 59.65 517.662 58.2 514.712C39.66 482.572 21.15 450.392 2.53 418.292C0.46 415.252 0.79 411.452 2.73 408.442C19.15 380.172 35.43 351.812 51.81 323.512C53.93 319.722 56.57 316.182 58.07 312.072C58.63 310.852 57.85 309.652 57.35 308.572C39.66 278.502 22.46 248.132 4.85 218.002C3.02 214.752 0.65 211.612 0 207.862C1.06 203.432 4 199.782 6.17 195.872C23.01 166.742 39.82 137.582 56.63 108.442C58.12 105.182 61.99 105.412 65.02 105.322C95.69 105.562 126.37 105.312 157.05 105.462C161.17 105.412 165.37 105.912 169.44 105.042C172.51 102.292 174.01 98.2916 176.11 94.8216C193.08 65.1816 210.33 35.7016 227.24 6.03164C228.53 4.16164 229.79 1.65164 232.32 1.36164C237.53 0.66164 242.81 1.19164 248.05 1.12164C280.75 1.09164 313.45 1.20164 346.15 1.05164C348.4 1.17164 351.13 1.13164 352.58 3.20164C355.5 6.82164 357.4 11.1016 359.76 15.0816C374.64 40.8716 389.52 66.6616 404.39 92.4516C406.49 95.9916 408.18 99.8116 410.75 103.052C411.9 104.742 414.2 104.282 415.96 104.512C445.32 104.342 474.69 104.482 504.05 104.422C509.32 104.352 514.62 104.842 519.88 104.292C521.75 104.362 522.58 102.512 523.52 101.222C541.49 69.6216 559.94 38.2816 577.91 6.67164C579.42 4.39164 580.7 1.38164 583.54 0.53164ZM587.66 11.3216C584.47 14.7216 582.73 19.1416 580.35 23.0916C566.94 46.3516 553.49 69.5816 540.09 92.8416C537.96 96.6516 535.27 100.202 533.79 104.342C533.16 105.962 534.21 107.542 534.85 108.982C552.01 138.542 569.14 168.132 586.13 197.792C586.9 198.902 587.69 200.342 589.27 200.262C594.51 200.832 599.79 200.322 605.05 200.402C634.08 200.472 663.11 200.292 692.14 200.512C693.83 200.452 695.59 200.452 697.23 199.932C699.88 197.082 701.37 193.402 703.33 190.092C716.94 166.382 730.68 142.762 744.29 119.062C746.54 115.002 749.34 111.222 751.11 106.902C752 105.142 750.95 103.302 750.18 101.722C735.02 75.8016 720.13 49.7216 705.09 23.7316C702.72 19.7816 700.88 15.4616 697.95 11.8716C696.88 10.2616 694.78 10.5516 693.13 10.3616C659.41 10.4516 625.69 10.4616 591.97 10.3616C590.54 10.5816 588.78 10.2416 587.66 11.3216ZM937.7 11.6116C934.51 14.5816 932.95 18.8116 930.72 22.4716C915.21 49.3216 899.79 76.2216 884.16 103.002C883.46 104.432 882.52 106.112 883.33 107.702C885.14 111.952 887.91 115.692 890.15 119.712C904.99 145.522 920 171.242 934.74 197.112C935.85 198.682 936.85 200.942 939.09 200.972C944.05 201.582 949.06 201.132 954.05 201.182C979.38 201.182 1004.72 201.172 1030.05 201.182C1035.03 201.132 1040.04 201.582 1045.01 200.982C1047.24 200.942 1048.24 198.672 1049.37 197.112C1066.11 167.852 1082.99 138.652 1099.92 109.502C1101.29 107.502 1101.38 105.002 1099.95 103.002C1084.54 76.6616 1069.41 50.1416 1054.1 23.7316C1051.58 19.6716 1049.94 14.9016 1046.41 11.5716C1041.36 10.5716 1036.16 11.2916 1031.06 11.1716C1001.36 11.1416 971.66 11.2716 941.96 11.0916C940.52 11.1516 939.07 11.1916 937.7 11.6116ZM235.86 12.4516C233.08 15.5916 231.41 19.5016 229.29 23.0816C213.91 49.7316 198.59 76.4116 183.09 102.992C181.66 105.052 181.61 107.632 183.09 109.682C198.57 136.242 213.88 162.912 229.27 189.532C231.65 193.382 233.22 197.942 236.67 201.012C241.39 201.962 246.26 201.322 251.05 201.412C277.72 201.392 304.39 201.392 331.06 201.412C335.82 201.322 340.68 201.982 345.38 200.962C348.33 198.112 349.84 194.172 351.93 190.712C367.5 163.602 383.2 136.552 398.8 109.472C401.43 105.492 397.69 101.472 395.89 98.0216C379.76 70.4116 363.84 42.6816 347.94 14.9416C346.93 13.5416 345.97 11.6316 343.99 11.6216C338.7 10.9516 333.36 11.4716 328.05 11.4016C299.02 11.3616 270 11.4716 240.98 11.3316C239.3 11.5616 237.17 11.1616 235.86 12.4516ZM412.84 110.482C409.59 114.172 407.72 118.812 405.19 122.972C389.77 149.562 374.56 176.262 359.01 202.762C358.24 204.472 356.81 206.352 357.66 208.292C359.11 212.212 361.59 215.622 363.64 219.232C377.81 243.722 391.96 268.222 406.09 292.732C408.47 296.602 410.1 301.102 413.48 304.262C418.26 305.262 423.2 304.612 428.05 304.702C455.72 304.692 483.38 304.662 511.05 304.712C515.84 304.612 520.75 305.302 525.45 304.122C528.3 301.142 529.85 297.222 531.94 293.712C547.69 266.422 563.42 239.092 579.24 211.842C580.53 209.952 580.4 207.662 579.11 205.812C561.01 174.832 543.18 143.662 525.21 112.602C524.05 110.262 521.65 109.232 519.13 109.432C485.41 109.452 451.69 109.542 417.98 109.392C416.28 109.632 414.18 109.232 412.84 110.482ZM61.53 111.092C58.61 114.092 57.03 118.052 54.91 121.602C40.41 146.772 25.88 171.932 11.34 197.082C9.38 200.642 6.74 203.932 5.67 207.902C6.6 212.132 9.51 215.592 11.54 219.352C25.97 244.252 40.34 269.182 54.73 294.112C56.95 297.792 58.55 301.972 61.65 305.042C66.36 306.112 71.26 305.432 76.05 305.522C103.72 305.492 131.39 305.512 159.05 305.522C163.88 305.432 168.78 306.082 173.55 305.122C176.78 302.222 178.33 297.992 180.55 294.352C196.12 267.242 211.79 240.182 227.43 213.122C230.21 209.312 226.56 205.412 224.8 202.062C209.35 175.762 194.26 149.252 178.96 122.872C176.54 118.932 174.84 114.452 171.58 111.102C166.86 109.792 161.88 110.532 157.05 110.422C130.05 110.472 103.05 110.462 76.05 110.422C71.22 110.532 66.24 109.802 61.53 111.092ZM762.6 111.142C761.48 112.142 760.67 113.412 759.88 114.672C744.59 141.622 728.93 168.362 713.5 195.232C711.26 199.422 708.05 203.212 706.77 207.842C707.94 212.492 711.16 216.272 713.38 220.452C728.34 246.472 743.53 272.372 758.34 298.482C760.18 301.422 761.66 306.072 765.98 305.492C801.03 305.482 836.08 305.392 871.13 305.532C872.63 305.352 874.53 305.612 875.57 304.222C878.38 300.882 880.1 296.802 882.33 293.082C897.61 266.672 912.76 240.172 928.16 213.832C928.88 212.182 930.22 210.312 929.33 208.462C927.68 204.382 925.07 200.792 922.93 196.972C908.55 172.012 894.1 147.092 879.73 122.132C877.47 118.372 875.84 114.102 872.63 111.022C867.22 109.662 861.56 110.562 856.05 110.402C826.7 110.372 797.34 110.502 767.99 110.322C766.17 110.412 764.28 110.412 762.6 111.142ZM238.72 214.622C235.54 217.602 233.97 221.822 231.74 225.492C217.86 249.602 203.95 273.692 190.03 297.782C187.86 301.772 184.86 305.422 183.63 309.852C184.64 314.052 187.48 317.512 189.53 321.252C205.89 349.592 222.32 377.892 238.56 406.302C239.48 407.582 240.37 409.352 242.21 409.302C247.47 409.862 252.77 409.362 258.05 409.442C287.41 409.502 316.78 409.342 346.14 409.532C347.9 409.302 350.22 409.792 351.4 408.122C354.15 404.702 355.9 400.622 358.14 396.872C372.45 372.172 386.66 347.412 401 322.732C402.97 319.162 405.64 315.842 406.59 311.812C405.29 307.112 402.09 303.232 399.81 298.992C384.36 272.122 368.69 245.382 353.41 218.422C352.15 215.992 350.17 213.652 347.12 214.152C315.77 214.222 284.41 214.202 253.05 214.182C248.28 214.272 243.42 213.612 238.72 214.622ZM590.37 213.952C586.98 216.812 585.42 221.162 583.15 224.872C569.4 248.762 555.59 272.632 541.81 296.522C539.59 300.592 536.48 304.322 535.37 308.892C536.46 313.672 539.74 317.562 542.03 321.802C556.53 346.952 571.09 372.062 585.54 397.242C587.78 400.902 589.33 405.182 592.63 408.052C599.02 409.182 605.58 408.202 612.05 408.452C640.41 408.532 668.77 408.332 697.13 408.562C698.85 408.492 700.62 408.492 702.29 407.952C705.46 404.572 707.16 400.152 709.55 396.242C725.35 369.012 740.97 341.662 756.88 314.492C757.52 313.032 758.71 311.402 757.98 309.762C756.21 305.452 753.41 301.672 751.17 297.622C735.73 270.762 720.09 244.022 704.78 217.092C703.77 215.702 702.9 213.752 700.94 213.662C695.67 212.912 690.34 213.472 685.05 213.392C658.05 213.372 631.05 213.442 604.05 213.362C599.49 213.432 594.83 212.832 590.37 213.952ZM939.71 214.612C938.63 215.522 937.85 216.722 937.11 217.902C920.18 247.592 903.01 277.152 885.89 306.742C884.32 308.862 884.8 311.452 886.19 313.522C902.55 341.572 918.7 369.752 934.95 397.872C937.2 401.552 938.79 405.782 941.93 408.842C943.53 409.422 945.27 409.412 946.98 409.492C980.69 409.332 1014.41 409.392 1048.12 409.472C1049.59 409.282 1051.47 409.532 1052.44 408.132C1055.5 404.362 1057.4 399.832 1059.89 395.702C1073.82 371.612 1087.72 347.502 1101.66 323.432C1103.75 319.612 1106.65 316.082 1107.69 311.792C1106.67 307.492 1103.76 303.972 1101.67 300.152C1085.83 272.662 1069.87 245.252 1054.13 217.712C1052.97 215.372 1050.84 213.712 1048.12 214.102C1016.77 214.192 985.41 214.162 954.05 214.142C949.28 214.232 944.41 213.562 939.71 214.612ZM418.48 318.092C415.44 320.962 413.88 324.962 411.76 328.492C398.05 352.412 384.18 376.252 370.44 400.162C368.4 403.762 365.93 407.152 364.31 410.992C363.31 412.812 364.55 414.712 365.35 416.352C380.73 442.702 395.91 469.182 411.17 495.612C413.55 499.472 415.17 503.992 418.59 507.092C423.34 508.082 428.24 507.432 433.05 507.522C459.72 507.492 486.38 507.492 513.05 507.522C517.84 507.422 522.73 508.102 527.45 507.032C530.73 503.812 532.39 499.372 534.75 495.492C548.4 471.822 562.08 448.152 575.74 424.482C577.86 420.632 580.75 417.072 581.84 412.752C581.65 410.982 580.77 409.382 579.98 407.832C564.79 381.972 549.97 355.912 534.92 329.962C532.51 326.012 530.81 321.522 527.54 318.182C522.83 316.922 517.87 317.622 513.06 317.522C486.39 317.572 459.72 317.562 433.05 317.532C428.2 317.622 423.24 316.942 418.48 318.092ZM66.6 319.172C63.57 322.392 61.91 326.602 59.65 330.362C46.13 353.842 32.58 377.312 19.02 400.772C16.87 404.582 14.23 408.172 12.68 412.292C11.88 413.952 13 415.632 13.66 417.142C30.69 446.472 47.69 475.842 64.51 505.292C65.45 506.582 66.32 508.412 68.19 508.342C73.46 508.892 78.76 508.402 84.05 508.482C113.08 508.542 142.1 508.362 171.13 508.592C172.96 508.362 175.29 508.842 176.6 507.222C179.57 503.702 181.37 499.392 183.72 495.472C198.85 469.232 213.98 442.982 229.17 416.782C230.69 414.662 230.42 412.062 229.01 409.982C213.66 383.602 198.45 357.132 183.2 330.702C180.78 326.762 179.12 322.192 175.69 318.992C170.89 317.912 165.92 318.572 161.05 318.482C134.38 318.502 107.71 318.522 81.05 318.472C76.24 318.572 71.28 317.832 66.6 319.172ZM767.66 319.332C764.61 322.512 762.93 326.702 760.69 330.442C746.78 354.522 732.91 378.642 718.95 402.702C717.02 406.272 714.18 409.572 713.52 413.662C714.73 418.142 717.76 421.842 719.96 425.872C734.4 451.072 749.12 476.112 763.43 501.392C765.28 504.302 766.68 509.012 771 508.472C805.04 508.472 839.1 508.362 873.15 508.522C874.51 508.442 875.92 508.392 877.25 507.942C880.02 504.872 881.55 500.942 883.66 497.422C897.45 473.542 911.22 449.652 925.02 425.772C927.05 422.152 929.52 418.762 931.11 414.912C931.98 413.172 930.79 411.372 930.1 409.822C914.08 382.132 897.98 354.492 882.16 326.692C879.99 323.222 878.24 317.672 873.14 318.402C839.42 318.472 805.69 318.502 771.97 318.392C770.54 318.602 768.79 318.272 767.66 319.332Z"
            fill="#B94909" />
        <path
            d="M591.82 15.9316C622.55 15.3516 653.31 16.0116 684.05 15.6216C686.88 15.6616 689.8 15.4816 692.56 16.2816C696.35 20.0816 698.18 25.3216 701.01 29.8116C711.42 47.1916 721.01 65.0516 731.38 82.4516C734.54 87.9516 738.53 93.1216 740.07 99.3916C735.45 95.8316 733.46 90.2016 730.48 85.4016C720.02 68.0316 710.43 50.1616 700.09 32.7216C697.11 28.0816 695.19 22.6416 691.29 18.6616C687 17.4316 682.45 18.1016 678.05 18.0116C651.04 18.1216 624.03 17.9816 597.03 18.0916C595.16 17.7116 591.64 18.8716 591.82 15.9316Z"
            fill="#B94909" />
        <path
            d="M240.08 16.9317C241.72 16.8217 243.37 16.7117 245.02 16.6517C272.03 16.7417 299.04 16.7117 326.05 16.6917C330.91 16.7717 335.87 16.1217 340.65 17.2017C344.54 20.5317 346.24 25.6317 348.91 29.8817C360.74 49.8217 371.73 70.2517 383.78 90.0717C385.79 93.3317 387.55 96.7517 388.71 100.412C383.89 96.8317 381.78 91.0617 378.73 86.1217C368.32 68.7417 358.7 50.9117 348.35 33.4917C345.7 29.1517 343.69 24.4017 340.55 20.3817C339.06 18.4217 336.25 19.0517 334.12 18.7817C307.1 19.0017 280.07 18.7917 253.05 18.9017C248.8 18.9017 244.51 19.1417 240.28 18.6217C240.23 18.1917 240.13 17.3517 240.08 16.9317Z"
            fill="#B94909" />
        <path
            d="M940.87 18.5016C941.41 16.1316 944.15 16.7316 945.99 16.4716C976.02 16.4616 1006.06 16.5816 1036.09 16.4116C1038.53 16.6616 1041.75 16.1516 1043.36 18.4616C1046.41 22.5916 1048.44 27.3616 1051.13 31.7216C1062.56 50.7516 1072.92 70.4016 1084.53 89.3216C1086.67 92.7516 1088.68 96.3116 1089.83 100.212C1085.2 97.2116 1083.39 91.8016 1080.61 87.3116C1069.69 69.0816 1059.57 50.4016 1048.73 32.1316C1046.04 27.8516 1044.32 22.8316 1040.63 19.2816C1035.84 18.2416 1030.9 18.9016 1026.05 18.8216C1003.38 18.8616 980.72 18.8216 958.05 18.8416C952.32 18.8316 946.57 19.1416 940.87 18.5016Z"
            fill="#B94909" />
        <path
            d="M375.25 418.362C380.03 421.952 381.99 427.792 385.1 432.672C395.78 450.452 405.56 468.752 416.2 486.542C418.9 490.842 420.64 495.922 424.43 499.432C426.57 500.012 428.82 499.972 431.02 500.022C458.36 499.722 485.7 500.082 513.04 499.822C516.93 499.892 521.24 499.172 524.61 501.612C522.1 501.972 519.58 502.212 517.05 502.242C490.38 502.142 463.72 502.172 437.05 502.212C432.26 502.082 427.26 502.902 422.63 501.412C419.1 497.642 417.25 492.672 414.55 488.332C403.3 469.482 392.95 450.102 381.56 431.322C379 427.242 376.47 423.062 375.25 418.362Z"
            fill="#B94909" />
        <path
            d="M23.9 419.452C27.66 422.732 29.89 427.242 32.26 431.532C45.36 453.552 57.65 476.052 70.68 498.112C71.44 498.992 72.01 500.372 73.31 500.532C77.84 501.332 82.47 500.872 87.05 500.902C113.39 500.812 139.72 501.002 166.06 500.802C168.08 500.812 170.09 500.952 172.11 501.092C172.03 501.522 171.86 502.392 171.77 502.822C166.24 503.592 160.62 503.102 155.05 503.172C131.72 503.192 108.38 503.132 85.05 503.202C80.51 503.122 75.85 503.732 71.4 502.622C67.46 498.902 65.68 493.562 62.84 489.052C52.66 472.102 43.32 454.672 33.2 437.692C29.86 431.742 25.47 426.222 23.9 419.452Z"
            fill="#B94909" />
        <path
            d="M724.98 419.422C726.43 420.742 727.86 422.132 728.93 423.802C741.86 445.372 753.9 467.462 766.71 489.102C768.94 492.822 770.55 497.022 773.62 500.172C777.97 501.382 782.58 500.762 787.05 500.852C810.38 500.742 833.71 500.842 857.05 500.802C862.43 500.792 867.83 500.532 873.2 501.012C873.09 501.442 872.87 502.312 872.76 502.742C867.23 503.592 861.61 503.052 856.05 503.142C832.71 503.152 809.38 503.092 786.05 503.172C781.54 503.082 776.9 503.712 772.51 502.502C768.63 498.742 766.77 493.472 763.93 488.962C754.21 472.582 745.08 455.872 735.44 439.452C731.83 432.842 726.83 426.852 724.98 419.422Z"
            fill="#B94909" />
    </g>
</svg>
