<svg width="1440" height="195" viewBox="0 0 1440 195" fill="none" xmlns="http://www.w3.org/2000/svg">
<path opacity="0.3" d="M0 1.77185C27.4509 12.2135 58.4261 21.3804 91.0004 29.6354C71.3937 30.2672 51.8097 31.3248 32.9154 33.3714C21.5773 34.6158 10.2922 36.069 0 38.2227V1.77185Z" fill="#E75932"/>
<path opacity="0.3" d="M91.5992 29.7124C101.391 29.3965 111.244 29.2591 121.066 29.4953C139.074 29.9733 156.869 31.1875 174.452 32.6517C226.065 37.0773 276.093 43.6153 325.243 50.7852C340.681 53.0954 356.195 55.3508 371.368 57.8836C357.59 58.6693 343.637 59.095 329.684 59.0868C281.952 59.3698 234.531 55.5211 190.353 49.1177C155.528 44.0493 122.483 37.4261 91.5992 29.7124Z" fill="#E75932"/>
<path opacity="0.3" d="M1377.82 56.0183C1396.74 50.7439 1417.19 45.9943 1440 43.2747V68.2236C1415.19 73.2809 1388.99 77.4894 1361.63 80.3821C1337.84 82.9589 1313.23 84.5357 1288.45 85.1428C1297.69 81.9012 1307.14 78.7421 1316.41 75.5143C1336.28 68.7757 1356.18 62.0179 1377.82 56.0183Z" fill="#E75932"/>
<path opacity="0.3" d="M488.312 51.4746C522.978 49.8593 558.083 49.1039 592.977 50.1423C618.654 50.8977 644.097 52.5954 668.963 55.0348C716.574 59.7295 762.01 66.8994 806.112 74.8412C816.086 76.6378 826.219 78.3245 836.2 80.121C840.376 80.8985 844.939 80.1128 849.123 79.7639C873.095 77.6267 897.234 75.6516 921.744 74.506C956.835 72.8056 992.38 72.7287 1027.66 73.572C1090.34 75.1296 1152.33 79.0936 1213.84 83.6071C1228.84 84.6098 1244.05 85.1262 1259.29 85.3075C1268.78 85.5548 1278.27 85.2636 1287.77 85.1592C1279.64 88.2881 1270.28 90.9582 1261.67 93.9004C1218.6 97.2847 1176.79 102.537 1136.41 108.894C1131.07 109.723 1125.82 110.638 1120.37 111.366C1106.15 110.82 1091.85 110.473 1077.73 109.605C1047.84 107.919 1018.44 105.227 989.553 101.996C939.039 96.3343 889.935 89.093 842.014 81.0248C838.163 80.4287 834.124 81.1265 830.387 81.4918C794.122 85.1702 757.751 88.9474 720.341 90.7742C715.589 90.9857 710.86 91.2494 706.153 91.5598C694.05 89.5682 682.234 87.3486 670.1 85.3789C618.419 76.841 562.919 71.1821 506.236 69.4679C485.409 68.7976 464.476 68.6355 443.573 68.8361C439.731 68.891 435.858 68.6438 432.447 67.99C412.712 64.4572 392.438 61.3338 372.543 57.9302C375.65 57.7599 378.72 57.5127 381.835 57.3451C417.342 55.4304 452.683 53.1064 488.312 51.4746Z" fill="#E75932"/>
<path opacity="0.51" d="M32.9154 33.3714C51.8097 31.3248 71.3937 30.2672 91.0004 29.6354L91.5992 29.7123C122.483 37.4261 155.528 44.0493 190.353 49.1176C234.531 55.521 281.952 59.3697 329.684 59.0867C343.637 59.095 357.59 58.6692 371.368 57.8835C371.664 57.8945 372.248 57.9165 372.543 57.9302C392.438 61.3338 412.712 64.4573 432.447 67.99C435.858 68.6438 439.731 68.891 443.573 68.8361C405.959 69.2289 368.542 70.7453 331.139 72.171C297.178 73.399 263.065 74.539 228.892 74.1846C198.963 73.822 169.261 72.0831 140.195 69.5146C91.6446 65.21 44.875 58.573 0 50.645V38.2227C10.2922 36.069 21.5773 34.6158 32.9154 33.3714Z" fill="#E75932"/>
<path opacity="0.51" d="M1361.63 80.3821C1388.99 77.4894 1415.19 73.2809 1440 68.2235V96.2107C1414.06 92.7164 1386.47 90.9885 1358.87 90.5929C1343.11 90.4611 1327.32 90.5105 1311.62 91.0956C1294.83 91.667 1278.18 92.6862 1261.67 93.9004C1270.28 90.9583 1279.64 88.2881 1287.77 85.1592L1288.45 85.1427C1313.23 84.5356 1337.84 82.9588 1361.63 80.3821Z" fill="#E75932"/>
<path opacity="0.51" d="M830.387 81.4918C834.124 81.1265 838.163 80.4287 842.013 81.0248C889.935 89.093 939.039 96.3343 989.553 101.996C1018.44 105.227 1047.84 107.919 1077.73 109.605C1091.85 110.473 1106.15 110.82 1120.37 111.366C1082.24 117.196 1041.01 120.33 999.648 120.682C940.464 121.231 881.985 116.399 826.227 109.553C785.232 104.452 745.245 98.3314 706.153 91.5599C710.86 91.2494 715.589 90.9857 720.341 90.7742C757.751 88.9474 794.122 85.1702 830.387 81.4918Z" fill="#E75932"/>
<path d="M0 50.645C44.8749 58.5731 91.6446 65.21 140.195 69.5147C169.261 72.0832 198.963 73.8221 228.892 74.1847C263.065 74.539 297.178 73.399 331.139 72.1711C368.541 70.7453 405.959 69.229 443.573 68.8361C464.476 68.6356 485.409 68.7977 506.236 69.468C562.919 71.1821 618.419 76.8411 670.1 85.379C682.234 87.3486 694.05 89.5683 706.153 91.5599C745.245 98.3314 785.232 104.452 826.227 109.553C881.985 116.399 940.464 121.231 999.648 120.682C1041.01 120.33 1082.24 117.196 1120.37 111.366C1125.82 110.638 1131.07 109.724 1136.41 108.894C1176.79 102.537 1218.6 97.2848 1261.67 93.9004C1278.18 92.6862 1294.83 91.667 1311.62 91.0956C1327.32 90.5105 1343.11 90.4611 1358.88 90.5929C1386.47 90.9885 1414.06 92.7164 1440 96.2107V195H0L0 50.645Z" fill="#E75932"/>
</svg>
