<?xml version="1.0" encoding="utf-8"?>
<!-- Generator: Adobe Illustrator 23.0.3, SVG Export Plug-In . SVG Version: 6.00 Build 0)  -->
<svg version="1.1" id="Layer_1" xmlns="http://www.w3.org/2000/svg" xmlns:xlink="http://www.w3.org/1999/xlink" x="0px" y="0px"
	 viewBox="0 0 256 256" style="enable-background:new 0 0 256 256;" xml:space="preserve">
<style type="text/css">
	.st0{fill:url(#SVGID_1_);}
	.st1{fill:url(#SVGID_2_);}
</style>
<g>
	<g>
		
			<linearGradient id="SVGID_1_" gradientUnits="userSpaceOnUse" x1="84.1365" y1="149.5202" x2="227.3773" y2="66.8201" gradientTransform="matrix(1 0 0 -1 0 258)">
			<stop  offset="0" style="stop-color:#E75930"/>
			<stop  offset="1" style="stop-color:#993333"/>
		</linearGradient>
		<path class="st0" d="M80.1,10.4c20.5,17.9,46.6,27.3,68.1,43.8c19,13.1,29.8,35.5,31,58.2c-1.5-1.7-3-3.5-4.6-5.2
			c-1.7,17.3-1.8,43.3-22.3,49.3c0.1-6.7,1.3-13.3,1.4-20l-0.1-0.8c-1.4-14-6.1-27.6-16.6-37.3c2.7,0.6,5.5,1.2,8.2,1.8
			c-9.8-22-42.7-29.3-60.6-13.1c-7.1,6.2-14.8,12.2-23.8,15.3c6,1.9,11.8,0.4,17.2-2.1c0.3-0.2,0.8-0.4,1-0.6
			c8.3-6.3,19.1-12.5,29.8-9.4c14.5,7.4,16.3,25.7,17.2,40.2c-1.9-1.4-3.8-3-5.7-4.4c2.8,12.3,6.1,26,1.4,38.2
			c-0.1,0.3-0.4,0.8-0.5,1c-5.1,10.2-16.4,13.7-26,18.3c-10.8,4.9-23.3,10.4-35.2,6c-10-3.3-16.7-12-21.1-21.1
			c3.6-7.6,7.3-15.8,14.3-21c0.2-0.2,0.6-0.5,0.9-0.7c12-10.3,26.8-16.7,41-23.3c7.7-4.6,14.8-12.9,12.8-22.4
			c-4.9-8-15.5-2.9-21.7,0.5c-7.8,5.5-19.1,10.1-28,4.6c-0.3-0.1-0.8-0.4-1-0.5c-3.1-0.9-3.9-4-4.3-6.8c7.7-4,15.3-9.8,16.6-18.9
			c1.3-11,5.5-22.4,15.4-28.5C77.7,38.9,76.5,24.1,80.1,10.4 M83.1,20.3c-1,10.1,2.4,20.6,8.6,28.5c0.1-2.9,0.3-8.6,0.4-11.5
			c6.7,1.3,13.5,2,20.4,1.6C102.1,33.7,92.1,27.7,83.1,20.3 M77,78.3c5.3-1.7,10.3-5.8,9-12C80.4,67.4,77.6,73.1,77,78.3z"/>
		
			<linearGradient id="SVGID_2_" gradientUnits="userSpaceOnUse" x1="57.8575" y1="100.2633" x2="199.662" y2="18.3924" gradientTransform="matrix(1 0 0 -1 0 258)">
			<stop  offset="0" style="stop-color:#E75930"/>
			<stop  offset="1" style="stop-color:#993333"/>
		</linearGradient>
		<path class="st1" d="M129,174.8c16.8-8.6,35.1-17,54.5-15.4c24.4,3.2,40.6,29.9,36.1,53.3c-2,12.4-8.6,23.6-16.9,32.9
			c-0.4-10.6-1.3-22.8-9.1-30.9c-11.1-9.7-27-4.3-38.4,1.9c-0.1,0.1-0.3,0.2-0.4,0.3C131.1,239.3,94.4,249,64,235.2
			c-20.6-9.4-30.7-33.4-27.8-55.2c9.3,10.1,20.8,19.8,35.6,18.3c19-2.4,35-14,52.4-21.2c0.4-0.2,1.1-0.6,1.5-0.8
			c0.7-0.4,1.4-0.7,2.1-1C128.2,175.3,128.7,175,129,174.8 M179.1,166.9c6.7,4,16.1,8.6,15,18c-5.1,2.4-11.7,0-17.3,1
			c4.8,2.7,11.8,3.9,13.4,10.1c-5.1,1.4-10,3.2-14.6,5.7c6.8,1.8,14.6,1.1,20.4,5.7c6.6,3.8,9.3,11.5,11.6,18.3
			C221.9,203.6,206.9,166.5,179.1,166.9z"/>
	</g>
</g>
</svg>
